<?xml version="1.0" encoding="UTF-8"?>
<svg id="Layer_6" data-name="Layer 6" xmlns="http://www.w3.org/2000/svg" viewBox="0 0 2000 2000">
  <defs>
    <style>
      .cls-1 {
        fill: #52b7de;
      }
    </style>
  </defs>
  <path class="cls-1" d="M1768,77H232c-85.6,0-155,69.4-155,155V1768c0,85.6,69.4,155,155,155H1768c85.6,0,155-69.4,155-155V232c0-85.6-69.4-155-155-155ZM1016.54,387.95l313.46,470.18-168.38,113.31s-199.08-283.8-201.2-283.8c-240.39,209.68-147.2,346.28-134.49,373.82,12.71,27.53,176.14,275.33,176.14,275.33,0,0-238.62-2.12-238.62,0-456.42-580.32,253.09-948.84,253.09-948.84Zm342.76,1224.52H610.35v-214.62l509.97-1.76s-226.62-334.63-228.73-335.69c-70.96-147.2,65.65-278.16,65.65-278.16l402.06,601.14v229.09Z"/>
</svg>